<svg viewBox="0 0 1000 1000" xmlns="http://www.w3.org/2000/svg" xml:space="preserve" style="fill-rule:evenodd;clip-rule:evenodd;stroke-linejoin:round;stroke-miterlimit:2">
  <clipPath id="a">
    <circle cx="500" cy="500" r="400.133"/>
  </clipPath>
  <g clip-path="url(#a)">
    <circle cx="491.661" cy="524.177" r="400.133" style="fill:url(#b)" transform="translate(8.338 -24.177)"/>
    <path d="M400 66.667 356.617 240.2c-8.467 33.862-12.697 50.793-21.514 64.57a100.01 100.01 0 0 1-30.333 30.333c-13.777 8.817-30.708 13.047-64.57 21.514L66.667 400 240.2 443.383c33.862 8.467 50.793 12.697 64.57 21.514a99.976 99.976 0 0 1 30.333 30.333c8.817 13.777 13.047 30.71 21.514 64.57L400 733.333 443.383 559.8c8.467-33.86 12.697-50.793 21.514-64.57a99.943 99.943 0 0 1 30.333-30.333c13.777-8.817 30.71-13.047 64.57-21.514L733.333 400 559.8 356.617c-33.86-8.467-50.793-12.697-64.57-21.514a99.976 99.976 0 0 1-30.333-30.333c-8.817-13.777-13.047-30.708-21.514-64.57L400 66.667Z" style="fill:#ffca77;fill-rule:nonzero" transform="translate(666.69 502.758) scale(.08666)"/>
    <path d="M400 66.667 356.617 240.2c-8.467 33.862-12.697 50.793-21.514 64.57a100.01 100.01 0 0 1-30.333 30.333c-13.777 8.817-30.708 13.047-64.57 21.514L66.667 400 240.2 443.383c33.862 8.467 50.793 12.697 64.57 21.514a99.976 99.976 0 0 1 30.333 30.333c8.817 13.777 13.047 30.71 21.514 64.57L400 733.333 443.383 559.8c8.467-33.86 12.697-50.793 21.514-64.57a99.943 99.943 0 0 1 30.333-30.333c13.777-8.817 30.71-13.047 64.57-21.514L733.333 400 559.8 356.617c-33.86-8.467-50.793-12.697-64.57-21.514a99.976 99.976 0 0 1-30.333-30.333c-8.817-13.777-13.047-30.708-21.514-64.57L400 66.667Z" style="fill:#ffca77;fill-rule:nonzero" transform="translate(644.253 475.745) scale(.05698)"/>
    <path d="M400 66.667 356.617 240.2c-8.467 33.862-12.697 50.793-21.514 64.57a100.01 100.01 0 0 1-30.333 30.333c-13.777 8.817-30.708 13.047-64.57 21.514L66.667 400 240.2 443.383c33.862 8.467 50.793 12.697 64.57 21.514a99.976 99.976 0 0 1 30.333 30.333c8.817 13.777 13.047 30.71 21.514 64.57L400 733.333 443.383 559.8c8.467-33.86 12.697-50.793 21.514-64.57a99.943 99.943 0 0 1 30.333-30.333c13.777-8.817 30.71-13.047 64.57-21.514L733.333 400 559.8 356.617c-33.86-8.467-50.793-12.697-64.57-21.514a99.976 99.976 0 0 1-30.333-30.333c-8.817-13.777-13.047-30.708-21.514-64.57L400 66.667Z" style="fill:#ffca77;fill-rule:nonzero" transform="rotate(-30 1085.024 -358.64) scale(.04713)"/>
    <path d="M400 66.667 356.617 240.2c-8.467 33.862-12.697 50.793-21.514 64.57a100.01 100.01 0 0 1-30.333 30.333c-13.777 8.817-30.708 13.047-64.57 21.514L66.667 400 240.2 443.383c33.862 8.467 50.793 12.697 64.57 21.514a99.976 99.976 0 0 1 30.333 30.333c8.817 13.777 13.047 30.71 21.514 64.57L400 733.333 443.383 559.8c8.467-33.86 12.697-50.793 21.514-64.57a99.943 99.943 0 0 1 30.333-30.333c13.777-8.817 30.71-13.047 64.57-21.514L733.333 400 559.8 356.617c-33.86-8.467-50.793-12.697-64.57-21.514a99.976 99.976 0 0 1-30.333-30.333c-8.817-13.777-13.047-30.708-21.514-64.57L400 66.667Z" style="fill:#ffca77;fill-rule:nonzero" transform="matrix(.10005 .0268 -.0268 .10005 462.166 653.424)"/>
    <path d="M797.733 306.288c-5.956-18.322-22.656-31.044-41.906-31.907l-231.149-10.447-81.391-216.628C436.516 29.28 419.264 17.327 400 17.327s-36.516 11.953-43.288 29.979l-81.389 216.628-231.148 10.447c-19.252.863-35.95 13.585-41.908 31.907-5.956 18.321.081 38.434 15.139 50.442l180.869 144.325-61.491 223.09c-5.109 18.577 1.805 38.366 17.4 49.7a46.277 46.277 0 0 0 52.663 1.185L400 647.614l193.152 127.417a46.28 46.28 0 0 0 52.662-1.184c15.597-11.32 22.508-31.125 17.392-49.7l-61.479-223.092L782.595 356.73c15.058-12.01 21.096-32.122 15.138-50.442Z" style="fill:#ffca77;fill-rule:nonzero" transform="translate(177.671 335.358) scale(.04772)"/>
    <path d="M797.733 306.288c-5.956-18.322-22.656-31.044-41.906-31.907l-231.149-10.447-81.391-216.628C436.516 29.28 419.264 17.327 400 17.327s-36.516 11.953-43.288 29.979l-81.389 216.628-231.148 10.447c-19.252.863-35.95 13.585-41.908 31.907-5.956 18.321.081 38.434 15.139 50.442l180.869 144.325-61.491 223.09c-5.109 18.577 1.805 38.366 17.4 49.7a46.277 46.277 0 0 0 52.663 1.185L400 647.614l193.152 127.417a46.28 46.28 0 0 0 52.662-1.184c15.597-11.32 22.508-31.125 17.392-49.7l-61.479-223.092L782.595 356.73c15.058-12.01 21.096-32.122 15.138-50.442Z" style="fill:#ffca77;fill-rule:nonzero" transform="rotate(-30 1257.352 21.888) scale(.06011)"/>
    <path d="M797.733 306.288c-5.956-18.322-22.656-31.044-41.906-31.907l-231.149-10.447-81.391-216.628C436.516 29.28 419.264 17.327 400 17.327s-36.516 11.953-43.288 29.979l-81.389 216.628-231.148 10.447c-19.252.863-35.95 13.585-41.908 31.907-5.956 18.321.081 38.434 15.139 50.442l180.869 144.325-61.491 223.09c-5.109 18.577 1.805 38.366 17.4 49.7a46.277 46.277 0 0 0 52.663 1.185L400 647.614l193.152 127.417a46.28 46.28 0 0 0 52.662-1.184c15.597-11.32 22.508-31.125 17.392-49.7l-61.479-223.092L782.595 356.73c15.058-12.01 21.096-32.122 15.138-50.442Z" style="fill:#ffca77;fill-rule:nonzero" transform="rotate(-45.001 1015.082 -204.02) scale(.03057)"/>
    <path d="M797.733 306.288c-5.956-18.322-22.656-31.044-41.906-31.907l-231.149-10.447-81.391-216.628C436.516 29.28 419.264 17.327 400 17.327s-36.516 11.953-43.288 29.979l-81.389 216.628-231.148 10.447c-19.252.863-35.95 13.585-41.908 31.907-5.956 18.321.081 38.434 15.139 50.442l180.869 144.325-61.491 223.09c-5.109 18.577 1.805 38.366 17.4 49.7a46.277 46.277 0 0 0 52.663 1.185L400 647.614l193.152 127.417a46.28 46.28 0 0 0 52.662-1.184c15.597-11.32 22.508-31.125 17.392-49.7l-61.479-223.092L782.595 356.73c15.058-12.01 21.096-32.122 15.138-50.442Z" style="fill:#ffca77;fill-rule:nonzero" transform="rotate(-120.004 348.645 138.988) scale(.02055)"/>
    <path d="M797.733 306.288c-5.956-18.322-22.656-31.044-41.906-31.907l-231.149-10.447-81.391-216.628C436.516 29.28 419.264 17.327 400 17.327s-36.516 11.953-43.288 29.979l-81.389 216.628-231.148 10.447c-19.252.863-35.95 13.585-41.908 31.907-5.956 18.321.081 38.434 15.139 50.442l180.869 144.325-61.491 223.09c-5.109 18.577 1.805 38.366 17.4 49.7a46.277 46.277 0 0 0 52.663 1.185L400 647.614l193.152 127.417a46.28 46.28 0 0 0 52.662-1.184c15.597-11.32 22.508-31.125 17.392-49.7l-61.479-223.092L782.595 356.73c15.058-12.01 21.096-32.122 15.138-50.442Z" style="fill:#ffca77;fill-rule:nonzero" transform="rotate(-50.687 873.66 -388.753) scale(.02055)"/>
    <path d="M400 66.667 356.617 240.2c-8.467 33.862-12.697 50.793-21.514 64.57a100.01 100.01 0 0 1-30.333 30.333c-13.777 8.817-30.708 13.047-64.57 21.514L66.667 400 240.2 443.383c33.862 8.467 50.793 12.697 64.57 21.514a99.976 99.976 0 0 1 30.333 30.333c8.817 13.777 13.047 30.71 21.514 64.57L400 733.333 443.383 559.8c8.467-33.86 12.697-50.793 21.514-64.57a99.943 99.943 0 0 1 30.333-30.333c13.777-8.817 30.71-13.047 64.57-21.514L733.333 400 559.8 356.617c-33.86-8.467-50.793-12.697-64.57-21.514a99.976 99.976 0 0 1-30.333-30.333c-8.817-13.777-13.047-30.708-21.514-64.57L400 66.667Z" style="fill:#ffca77;fill-rule:nonzero" transform="rotate(45 -319.646 795.683) scale(.07799)"/>
    <path d="M400 66.667 356.617 240.2c-8.467 33.862-12.697 50.793-21.514 64.57a100.01 100.01 0 0 1-30.333 30.333c-13.777 8.817-30.708 13.047-64.57 21.514L66.667 400 240.2 443.383c33.862 8.467 50.793 12.697 64.57 21.514a99.976 99.976 0 0 1 30.333 30.333c8.817 13.777 13.047 30.71 21.514 64.57L400 733.333 443.383 559.8c8.467-33.86 12.697-50.793 21.514-64.57a99.943 99.943 0 0 1 30.333-30.333c13.777-8.817 30.71-13.047 64.57-21.514L733.333 400 559.8 356.617c-33.86-8.467-50.793-12.697-64.57-21.514a99.976 99.976 0 0 1-30.333-30.333c-8.817-13.777-13.047-30.708-21.514-64.57L400 66.667Z" style="fill:#ffca77;fill-rule:nonzero" transform="rotate(45.002 -378.533 404.168) scale(.05079)"/>
    <path d="M669.584 53.333c-114.352 0-267.792 78.454-370.832 213.334h-85.419c-61.722 0-97.098 46.069-121.456 94.789l-32.608 65.211h154.064l160 160v154.064l65.211-32.603c48.72-24.363 94.789-59.739 94.789-121.461v-85.419c134.88-103.04 213.334-256.48 213.334-370.832V53.333h-77.083Zm-136.251 160c29.456 0 53.334 23.878 53.334 53.334 0 29.456-23.878 53.333-53.334 53.333C503.877 320 480 296.123 480 266.667s23.877-53.334 53.333-53.334Z" style="fill:#fff;fill-rule:nonzero" transform="rotate(-8.181 3915.16 -1197.786) scale(.29871)"/>
    <path d="M895.55 578.448c-70.021-206.964-237.86-413.782-528.11-277.896-290.25 135.885-42.364 177.276 161.74 163.781 204.104-13.495 238.12-68.375 230.052 47.12-8.068 115.495-83.927 262.203-234.646 264.896-145.414 2.597-159.184-93.928-118.857-112.053-16.793-13.381-51.977.153-56.45 19.667-4.432-2.204-3.238-44.151 1.718-63.604-18.623 2.905-45.442 48.437-45.442 48.437s-10.654-39.634-.61-54.531c-41.328 3.459-111.501 183.089-63.315 197.279 50.271 156.271 542.607 79.273 599.893 75.476" style="fill:url(#c)"/>
    <path d="M669.584 53.333c-114.352 0-267.792 78.454-370.832 213.334h-85.419c-61.722 0-97.098 46.069-121.456 94.789l-32.608 65.211h154.064l160 160v154.064l65.211-32.603c48.72-24.363 94.789-59.739 94.789-121.461v-85.419c134.88-103.04 213.334-256.48 213.334-370.832V53.333h-77.083Zm-136.251 160c29.456 0 53.334 23.878 53.334 53.334 0 29.456-23.878 53.333-53.334 53.333C503.877 320 480 296.123 480 266.667s23.877-53.334 53.333-53.334Zm-346.666 320L160 560c-38.517 38.517-53.333 133.333-53.333 133.333S197.227 682.773 240 640l26.667-26.667-80-80Z" style="fill:#fff;fill-rule:nonzero" transform="rotate(-83.896 621.952 80.083) scale(.22938)"/>
    <path d="M669.584 53.333c-114.352 0-267.792 78.454-370.832 213.334h-85.419c-61.722 0-97.098 46.069-121.456 94.789l-32.608 65.211h154.064l160 160v154.064l65.211-32.603c48.72-24.363 94.789-59.739 94.789-121.461v-85.419c134.88-103.04 213.334-256.48 213.334-370.832V53.333h-77.083Zm-136.251 160c29.456 0 53.334 23.878 53.334 53.334 0 29.456-23.878 53.333-53.334 53.333C503.877 320 480 296.123 480 266.667s23.877-53.334 53.333-53.334Zm-346.666 320L160 560c-38.517 38.517-53.333 133.333-53.333 133.333S197.227 682.773 240 640l26.667-26.667-80-80Z" style="fill:#fff;fill-rule:nonzero" transform="rotate(29.677 -700.456 580.583) scale(.17647)"/>
    <circle cx="492.047" cy="270.4" r="57.761" style="fill:#fff" transform="translate(-36.026 6.932)"/>
    <circle cx="492.047" cy="270.4" r="57.761" style="fill:#fff" transform="translate(68.46 5.01)"/>
    <circle cx="409.729" cy="315.882" r="15.453" style="fill:#272537" transform="matrix(1.474 0 0 1.63448 -151.772 -218.377)"/>
    <circle cx="409.729" cy="315.882" r="15.453" style="fill:#272537" transform="matrix(1.474 0 0 1.63448 -54.988 -220.089)"/>
  </g>
  <defs>
    <linearGradient id="b" x1="0" y1="0" x2="1" y2="0" gradientUnits="userSpaceOnUse" gradientTransform="rotate(90 176.552 308.833) scale(786.926)">
      <stop offset="0" style="stop-color:#462a50;stop-opacity:1"/>
      <stop offset=".53" style="stop-color:#30263e;stop-opacity:1"/>
      <stop offset="1" style="stop-color:#272537;stop-opacity:1"/>
    </linearGradient>
    <linearGradient id="c" x1="0" y1="0" x2="1" y2="0" gradientUnits="userSpaceOnUse" gradientTransform="rotate(-105.315 683.562 237.097) scale(646.188)">
      <stop offset="0" style="stop-color:#954f74;stop-opacity:1"/>
      <stop offset=".46" style="stop-color:#ba6668;stop-opacity:1"/>
      <stop offset="1" style="stop-color:#c56d64;stop-opacity:1"/>
    </linearGradient>
  </defs>
</svg>
